<?xml version="1.0" standalone="no"?>
<!DOCTYPE svg PUBLIC "-//W3C//DTD SVG 20010904//EN"
 "http://www.w3.org/TR/2001/REC-SVG-20010904/DTD/svg10.dtd">
<svg version="1.0" xmlns="http://www.w3.org/2000/svg"
 width="200.000000pt" height="150.000000pt" viewBox="0 0 200.000000 150.000000"
 preserveAspectRatio="xMidYMid meet">

<g transform="translate(0.000000,150.000000) scale(0.100000,-0.100000)"
fill="#000000" stroke="none">
<path d="M400 1461 c-81 -26 -129 -53 -211 -119 -80 -63 -169 -161 -169 -185
0 -16 190 -157 212 -157 8 0 19 5 26 12 17 17 17 22 -25 -255 -32 -214 -35
-249 -23 -257 8 -6 101 -10 206 -10 158 0 194 3 204 15 7 8 10 22 6 30 -4 13
-34 15 -186 15 -99 0 -180 3 -180 8 0 4 20 133 44 287 25 154 42 283 40 287
-12 18 -47 6 -75 -27 -17 -19 -35 -35 -40 -35 -4 0 -37 21 -73 46 l-66 45 32
40 c76 95 246 204 334 215 36 5 40 3 54 -27 21 -46 56 -68 117 -76 44 -5 61
-1 105 20 30 15 62 40 73 57 18 28 24 31 57 27 59 -8 126 -45 184 -103 47 -48
112 -141 103 -148 -15 -10 -167 -96 -172 -96 -3 0 -15 16 -27 35 -28 45 -66
49 -74 8 -31 -167 -30 -199 10 -191 14 2 21 17 27 56 8 52 9 53 28 37 11 -11
25 -15 36 -11 41 16 243 139 243 148 0 28 -71 137 -126 194 -77 80 -168 126
-252 128 -51 1 -58 -1 -69 -24 -23 -49 -59 -73 -116 -78 -63 -5 -95 15 -106
68 -6 33 -9 35 -51 37 -25 1 -70 -6 -100 -16z"/>
<path d="M590 1160 c0 -11 40 -34 47 -26 3 3 3 12 0 21 -7 16 -47 21 -47 5z"/>
<path d="M650 1161 c0 -20 28 -33 49 -21 24 12 29 32 6 24 -8 -4 -15 -10 -15
-16 0 -5 -7 -2 -16 6 -18 18 -24 20 -24 7z"/>
<path d="M734 1156 c-10 -8 -16 -17 -13 -20 9 -9 59 11 59 24 0 14 -23 12 -46
-4z"/>
<path d="M590 1116 c0 -15 56 -33 67 -22 4 3 -3 6 -14 6 -12 0 -23 7 -27 15
-7 19 -26 20 -26 1z"/>
<path d="M740 1115 c-7 -8 -19 -15 -28 -15 -8 0 -13 -2 -10 -5 10 -10 68 8 68
21 0 18 -14 18 -30 -1z"/>
<path d="M403 1078 c-10 -16 -82 -470 -76 -480 2 -5 48 -8 103 -8 80 0 99 3
104 16 12 31 5 34 -64 34 -62 0 -70 2 -70 19 0 11 14 106 30 212 17 107 28
199 26 206 -7 17 -42 17 -53 1z"/>
<path d="M580 1074 c0 -17 22 -14 28 4 2 7 -3 12 -12 12 -9 0 -16 -7 -16 -16z"/>
<path d="M740 1081 c0 -17 18 -21 24 -6 3 9 0 15 -9 15 -8 0 -15 -4 -15 -9z"/>
<path d="M654 1044 c0 -13 7 -24 15 -24 8 0 11 3 8 7 -4 3 -2 12 3 18 8 9 5
14 -9 18 -15 3 -18 0 -17 -19z"/>
<path d="M593 1047 c-13 -5 -23 -16 -23 -24 0 -18 7 -16 31 8 25 25 22 30 -8
16z"/>
<path d="M720 1053 c1 -11 26 -43 34 -43 15 0 4 30 -14 40 -11 6 -20 7 -20 3z"/>
<path d="M707 1024 c-10 -11 -8 -44 2 -44 6 0 13 4 16 10 8 12 -9 43 -18 34z"/>
<path d="M601 1006 c-8 -10 -9 -16 -1 -21 5 -3 13 1 16 10 9 22 -1 29 -15 11z"/>
<path d="M650 979 c0 -5 -4 -8 -9 -4 -17 10 -24 -17 -8 -32 11 -12 19 -13 36
-4 25 14 29 44 4 34 -11 -4 -14 -3 -9 5 4 7 2 12 -3 12 -6 0 -11 -5 -11 -11z"/>
<path d="M513 948 c-9 -11 -43 -208 -43 -245 0 -8 13 -13 30 -13 32 0 31 -1
47 95 l8 50 24 -62 c16 -42 29 -63 40 -63 9 0 34 25 55 55 22 30 41 54 42 52
2 -1 -8 -70 -21 -152 -12 -83 -21 -153 -18 -157 7 -13 53 -9 58 5 7 20 65 398
65 424 0 21 -4 24 -32 21 -26 -2 -40 -14 -78 -68 -26 -36 -50 -64 -55 -63 -4
1 -20 30 -34 65 -22 52 -31 64 -52 66 -14 2 -30 -3 -36 -10z"/>
<path d="M862 882 c-9 -7 -12 -52 -10 -193 l3 -184 78 -3 c72 -3 77 -1 77 18
0 18 -6 20 -55 20 l-55 0 -2 172 c-3 168 -7 188 -36 170z"/>
<path d="M994 765 c-3 -8 13 -48 35 -88 33 -60 41 -84 41 -126 0 -49 2 -52 23
-49 20 3 23 10 27 68 5 52 14 78 44 129 31 50 36 65 25 72 -26 16 -35 9 -65
-53 l-31 -63 -32 63 c-30 60 -55 78 -67 47z"/>
<path d="M1246 759 c-25 -20 -26 -24 -26 -119 0 -122 13 -145 84 -145 69 0 90
26 94 119 2 41 -1 90 -7 109 -19 57 -94 76 -145 36z m88 -35 c12 -11 16 -35
16 -88 0 -80 -11 -100 -52 -94 -22 3 -23 8 -26 88 -2 71 0 87 14 97 23 17 29
16 48 -3z"/>
<path d="M1447 773 c-4 -3 -7 -66 -7 -140 l0 -133 25 0 c25 0 25 1 25 83 l1
82 42 -80 c35 -67 46 -80 67 -80 l25 0 0 135 c0 132 -1 135 -22 138 -21 3 -22
-1 -25 -80 l-3 -83 -34 65 c-47 91 -72 116 -94 93z"/>
<path d="M224 417 c-2 -7 -3 -98 -2 -202 3 -182 4 -190 23 -190 19 0 20 8 25
150 l5 150 23 -42 c12 -24 28 -43 35 -43 7 0 23 18 36 40 12 22 23 40 24 40 1
0 1 -36 0 -79 -1 -59 2 -82 13 -91 32 -27 39 2 36 144 -3 126 -4 136 -22 136
-11 0 -26 -10 -33 -22 -8 -13 -23 -38 -34 -56 l-20 -34 -32 56 c-22 39 -37 56
-51 56 -12 0 -23 -6 -26 -13z"/>
<path d="M545 421 c-9 -15 -75 -238 -75 -254 0 -8 8 -18 17 -21 20 -8 43 17
43 46 0 15 8 18 44 18 41 0 45 -2 51 -30 8 -37 17 -43 39 -27 13 10 15 18 7
42 -5 17 -24 76 -41 133 -28 92 -33 102 -55 102 -13 0 -26 -4 -30 -9z m49
-107 c4 -19 10 -42 13 -50 4 -10 -3 -14 -27 -14 -30 0 -32 2 -26 26 4 15 10
39 13 55 7 36 19 29 27 -17z"/>
<path d="M717 423 c-4 -3 -7 -66 -7 -139 0 -96 3 -133 13 -136 27 -11 37 4 37
58 0 46 3 54 18 54 12 0 26 -17 42 -50 29 -63 45 -77 65 -60 12 10 11 19 -11
62 l-25 50 21 23 c37 39 28 114 -16 133 -27 13 -126 16 -137 5z m113 -53 c11
-11 20 -24 20 -29 0 -19 -32 -41 -61 -41 -28 0 -29 2 -29 45 0 41 2 45 25 45
14 0 34 -9 45 -20z"/>
<path d="M973 420 c-34 -14 -43 -42 -43 -137 0 -95 14 -133 50 -133 11 0 20
-8 22 -22 4 -29 28 -36 28 -9 0 13 9 25 24 31 43 16 56 47 56 132 0 42 -5 88
-11 101 -19 41 -75 57 -126 37z m79 -54 c9 -13 10 -138 2 -160 -9 -22 -21 -20
-27 5 -6 23 -27 17 -27 -7 0 -8 -4 -12 -10 -9 -5 3 -10 44 -10 90 0 68 3 86
17 93 18 11 44 5 55 -12z"/>
<path d="M1157 424 c-11 -11 -8 -223 3 -243 14 -27 64 -44 105 -37 56 11 65
34 65 169 0 117 0 118 -22 115 -22 -3 -23 -8 -28 -118 l-5 -115 -35 0 -35 0
-5 115 c-4 93 -8 115 -20 118 -9 1 -19 0 -23 -4z"/>
<path d="M1404 343 c-14 -49 -32 -108 -40 -133 -12 -40 -12 -46 2 -57 23 -17
41 -6 48 28 5 28 8 30 48 27 34 -2 44 -7 46 -23 6 -33 22 -46 42 -35 17 9 15
18 -20 134 -21 68 -41 129 -44 135 -4 6 -18 11 -31 11 -21 0 -27 -10 -51 -87z
m74 -91 c-42 -8 -46 0 -29 58 l15 55 16 -55 c15 -52 15 -55 -2 -58z"/>
<path d="M1626 409 c-25 -20 -26 -24 -26 -123 0 -122 12 -141 85 -141 63 0 85
24 85 92 l0 53 -46 0 c-38 0 -45 -3 -42 -17 2 -10 12 -18 22 -18 24 0 31 -18
16 -44 -14 -27 -56 -27 -70 -2 -5 11 -10 47 -10 80 0 48 4 65 20 81 24 24 54
14 65 -20 3 -11 15 -20 26 -20 14 0 19 7 19 29 0 37 -40 71 -85 71 -18 0 -44
-9 -59 -21z"/>
<path d="M1817 424 c-4 -4 -7 -65 -7 -134 0 -98 3 -130 14 -139 9 -7 42 -11
88 -9 65 3 73 5 73 23 0 18 -8 20 -63 23 l-63 3 3 37 c3 35 5 37 41 40 30 3
37 7 35 20 -2 12 -15 18 -41 20 -37 3 -38 4 -35 40 l3 37 63 3 c53 3 63 6 60
20 -3 14 -17 18 -84 20 -44 1 -83 0 -87 -4z"/>
<path d="M311 53 c-1 -28 2 -33 22 -32 15 1 17 3 5 6 -9 2 -19 16 -21 31 -4
24 -4 24 -6 -5z"/>
<path d="M370 50 c0 -25 4 -30 23 -29 19 1 19 2 3 6 -15 4 -16 7 -5 14 10 6
10 9 2 9 -19 0 -16 18 5 23 13 4 11 5 -5 6 -19 1 -23 -4 -23 -29z"/>
<path d="M440 61 c-15 -29 -13 -36 14 -37 22 -2 23 0 14 27 -12 34 -14 35 -28
10z"/>
<path d="M491 78 c-1 -4 4 -19 10 -35 10 -27 11 -27 25 -9 8 11 14 27 14 35
-1 11 -5 8 -14 -7 l-12 -23 -12 23 c-6 13 -11 20 -11 16z"/>
<path d="M560 50 c0 -25 4 -30 23 -29 19 1 19 2 3 6 -15 4 -16 7 -5 14 10 6
10 9 2 9 -19 0 -16 18 5 23 13 4 11 5 -5 6 -19 1 -23 -4 -23 -29z"/>
<path d="M654 70 c3 -8 9 -23 12 -33 6 -15 8 -14 20 9 17 33 18 39 1 25 -10
-8 -17 -7 -26 2 -11 10 -12 9 -7 -3z"/>
<path d="M727 74 c-4 -4 -7 -18 -7 -31 0 -17 6 -23 21 -23 16 0 20 5 17 27 -3
26 -18 39 -31 27z m23 -24 c0 -11 -4 -20 -10 -20 -5 0 -10 9 -10 20 0 11 5 20
10 20 6 0 10 -9 10 -20z"/>
<path d="M791 53 c-1 -27 3 -33 19 -33 16 0 20 6 19 33 -2 30 -2 30 -6 5 -6
-36 -20 -36 -26 0 -4 25 -4 25 -6 -5z"/>
<path d="M857 74 c-10 -11 -9 -54 2 -54 5 0 12 6 14 13 4 9 6 9 6 0 2 -26 17
-12 16 14 0 27 -22 42 -38 27z m28 -14 c3 -5 1 -10 -4 -10 -6 0 -11 5 -11 10
0 6 2 10 4 10 3 0 8 -4 11 -10z"/>
<path d="M951 49 c0 -25 2 -29 8 -15 7 18 8 18 25 1 21 -22 26 -18 19 18 -4
20 -8 25 -14 16 -6 -10 -10 -10 -23 0 -14 12 -16 9 -15 -20z"/>
<path d="M1034 52 c-11 -28 -10 -30 12 -28 27 1 30 14 11 39 -11 16 -13 15
-23 -11z"/>
<path d="M1100 48 c0 -25 3 -29 10 -18 6 10 10 11 10 3 0 -7 4 -13 8 -13 4 0
8 12 7 27 0 18 -6 29 -17 31 -14 3 -18 -3 -18 -30z m25 12 c3 -5 1 -10 -4 -10
-6 0 -11 5 -11 10 0 6 2 10 4 10 3 0 8 -4 11 -10z"/>
<path d="M1160 50 c0 -23 3 -30 9 -21 6 9 11 10 15 2 4 -6 12 -11 18 -11 7 0
7 5 -1 14 -6 7 -9 22 -5 32 5 16 4 16 -5 4 -10 -13 -12 -13 -21 0 -7 11 -10 6
-10 -20z"/>
</g>
</svg>
